<?xml version="1.0" encoding="UTF-8"?><svg id="_レイヤー_2" xmlns="http://www.w3.org/2000/svg" xmlns:xlink="http://www.w3.org/1999/xlink" viewBox="0 0 148.46 85.82"><defs><style>.cls-1{fill-rule:evenodd;}.cls-2{fill:url(#GradientFill_1);}</style><linearGradient id="GradientFill_1" x1="33.57" y1="67.53" x2="114.89" y2="67.53" gradientUnits="userSpaceOnUse"><stop offset="0" stop-color="#e1a980"/><stop offset=".1" stop-color="#dba37a"/><stop offset="1" stop-color="#ad764e"/></linearGradient></defs><g id="Layer_1"><path d="M3.19,85.82c-.45,0-.85-.05-1.21-.16-.36-.1-.68-.25-.95-.42-.27-.18-.49-.38-.66-.6-.18-.22-.3-.46-.37-.71l1.14-.37c.12.33.35.61.68.85s.75.36,1.23.37c.59,0,1.05-.12,1.39-.35s.51-.55.51-.94c0-.36-.15-.65-.44-.88-.29-.23-.69-.4-1.17-.52l-.97-.25c-.38-.1-.73-.25-1.05-.44-.31-.19-.56-.43-.75-.73s-.28-.65-.28-1.06c0-.77.25-1.36.75-1.79.5-.43,1.22-.65,2.16-.65.54,0,1.01.09,1.41.26.4.17.73.4.99.68s.44.59.56.92l-1.14.38c-.14-.36-.37-.65-.69-.87-.33-.22-.73-.33-1.21-.33-.5,0-.9.12-1.19.36-.29.24-.44.57-.44.98,0,.35.11.62.34.81.23.19.53.33.92.42l.97.24c.78.19,1.39.51,1.81.95.43.44.64.93.64,1.45,0,.46-.11.86-.34,1.23-.23.36-.56.65-1,.86-.44.21-.99.32-1.63.32Z"/><path d="M19.77,85.67v-8.37h1.14v8.37h-1.14ZM20.54,83.02l-.35-1.24,4.27-4.47h1.5l-5.42,5.72ZM24.66,85.67l-3.41-4.26.8-.74,4.05,5h-1.45Z"/><path d="M39.21,85.67v-8.37h1.17v8.37h-1.17Z"/><path d="M54.47,85.67v-8.37h1.21l-.04.98v7.39h-1.17ZM60.41,85.67l-5.67-7.71.93-.66,5.67,7.7-.93.67ZM60.41,85.67v-8.37h1.18v8.37h-1.18Z"/><path d="M81.67,85.67v-8.37h1.17v8.37h-1.17ZM85.68,83.39l-3.88-5.71.5-.21.61-.17,3.35,4.96-.59,1.12ZM85.68,83.39l-.57-1.12,3.35-4.96.61.17.49.2-3.88,5.72ZM88.52,85.67v-8.37h1.17v8.37h-1.17Z"/><path d="M102.83,85.67l3.37-8.37h1.2l-3.31,8.37h-1.26ZM104.42,83.44v-1.05h4.82v1.05h-4.82ZM109.57,85.67l-3.31-8.37h1.2l3.37,8.37h-1.26Z"/><path d="M123.96,85.67v-8.37h1.14v8.37h-1.14ZM124.73,83.02l-.35-1.24,4.27-4.47h1.5l-5.42,5.72ZM128.85,85.67l-3.41-4.26.8-.74,4.05,5h-1.45Z"/><path d="M143.4,85.67v-8.37h1.17v8.37h-1.17ZM144.38,78.38v-1.08h4.05v1.08h-4.05ZM144.38,81.92v-1.05h3.67v1.05h-3.67ZM144.38,85.67v-1.08h4.08v1.08h-4.08Z"/><path class="cls-1" d="M36.78,45.41c11.16-2.63,17.95-4.21,29.43-.53,1.11.35.48,1.98-.47,1.75-10.78-2.75-16.53-2.45-27.29.46-2.59.7-4.4.67-3.28-3.36.65-2.34,2.17-5.88,2.71-7.19,2.77-6.68,13.61-28.41,13.99-34.06.22-3.48,2.22-3.04,1.99-.24-.53,6.49-9.76,25.17-12.74,31.48-.89,2.05-3.98,8.97-4.35,11.7"/><path class="cls-1" d="M58.21,33.22c-1.03.23-3.11.75-4.2,1.68-2.5,2.15,2.1,4.36,3.93,2.39.88-.95.58-2.58.27-4.07M112.24,36.75c.76,0,1.38-.46,1.38-1.03s-.62-1.03-1.38-1.03-1.38.46-1.38,1.03.62,1.03,1.38,1.03ZM57.43,31.47c-.78-1.53-2.6-5.1-3.21-7.34-.78-2.88,1.04-4.83,3.63-3.95.27.09.56.21.8.35.87.52.53,1.78-.65,1.52-.18-.04-.41-.1-.6-.16-1.58-.47-2.01.6-1.44,2.13.49,1.31,1.44,3.44,2.18,5.06.3.66.61,1.27.9,1.87,4.76-1.09,11.33,0,16.11.7,10.11,1.47,20.14,3.12,30.4,2.17.51-.05.96.33,1.01.83.05.51-.33.96-.84,1.01-10.43.97-20.56-.68-30.84-2.18-4.47-.65-10.63-1.69-15.11-.79.24.7.42,1.44.5,2.28.15,1.59-.16,2.96-1.34,3.85-3.98,3.01-9.96-1.37-6.36-4.92,1.27-1.25,3.4-1.99,4.87-2.42Z"/><path class="cls-2" d="M114.61,67.84c-.77-.4-1.25.04-1.76.51l-.21.19s-.02.02-.03.03c-.04,0-.08.02-.12.03.2-.35.42-.68.65-.99.06-.08.05-.18-.01-.25-.06-.07-.19-.11-.25-.04-1.34,1.48-6.82,3.29-8.76,1.56.49-.14.99-.3,1.5-.47.06-.02.11-.07.13-.14.02-.06,0-.13-.04-.18-.55-.63-1.17-.71-1.84-.24-.23.16-.28.61-.28.7,0,.03,0,.05,0,.07-.74.6-5.38,2.28-7.62.69.43-.13.83-.26,1.18-.38.07-.02.12-.08.13-.15.01-.07-.01-.14-.07-.19-.3-.26-1.11-.95-2.04.02-.14.22-.15.4-.11.54-.68.18-6.46,2.66-10.05-.35-.1-.08-.2-.17-.31-.25-1.06-.81-2.03-1.23-2.98-1.28,3.76-1.69,7.92-3.44,10.54-5.91.08-.08.08-.2,0-.29-.08-.08-.2-.08-.29,0-2.82,2.66-7.25,4.5-11.52,6.3.41-.55.82-1.09,1.23-1.63,1.18-1.54,3.34-4.59,4.31-6.08.23-.35.45-.71.5-1.12.05-.42-.1-.97-.57-1.18-.29-.13-.61-.09-.9-.03-1.8.38-3.44,1.38-4.6,2.81-.07.09-.06.21.03.28.09.07.22.06.28-.03,1.11-1.36,2.66-2.31,4.37-2.67.23-.05.47-.08.65,0,.27.12.37.47.34.76-.04.33-.23.64-.44.95-.96,1.47-3.12,4.52-4.29,6.05-.57.74-1.14,1.49-1.69,2.24-2.03,1.08-8.75,2-11.01,2.65.76-.74,1.35-1.66,1.67-2.66.33-.14.66-.29.98-.46.24-.12.55-.37.62-.67.04-.15,0-.29-.09-.42-.15-.2-.41-.24-.6-.25-1.24-.07-2.51.51-3.27,1.51-.03.04-.05.1-.03.15.01.05.05.1.1.12.24.12.5.17.77.18-1.69.55-3.48.8-5.25.79-.63-.01-1-.15-1.14-.43-.03-.05-.05-.11-.06-.17-.04-.11-.08-.24-.17-.35-.19-.23-.51-.3-.95-.23-.59.1-1.16.3-1.68.59l.27-.34c.05-.07.06-.16,0-.23-.05-.07-.15-.09-.23-.05-2.1,1.04-4.44,1.69-6.78,1.86-.08,0-.16.01-.24.01.02-.09.02-.18,0-.27-.06-.51-.56-.82-1.01-.86-.45-.05-.88.11-1.23.24-.8.29-1.57.87-1.33,1.62.13.39.51.61.92.67-3.67,1.14-7.6,1.3-11.35.45l-.47-.11c-.29-.07-.57-.14-.86-.2.37-.31.75-.68,1.12-1.11,1.87-2.16,3.11-4.79,4.31-7.34.25-.53.5-1.07.76-1.59.59-.28,1.14-.64,1.63-1.08.06-.05.08-.14.05-.21-.07-.16-.2-.29-.39-.35-.22-.08-.49-.05-.69.07-.31.18-.48.49-.64.82-.08.15-.15.31-.23.47-1.26.57-2.71.73-4.07.43-.1-.02-.2.04-.22.14-.02.1.04.2.14.22,1.29.28,2.67.17,3.91-.3-.19.4-.39.81-.58,1.22-1.19,2.52-2.41,5.13-4.25,7.25-.44.51-.88.93-1.32,1.26-.94-.16-1.89-.2-2.77.18-.15.06-.34.16-.42.36-.07.16-.05.33.06.47.19.26.61.37.91.34.79-.08,1.56-.39,2.32-.95.39.07.78.16,1.16.25l.47.11c3.84.87,7.86.71,11.61-.48.64-.2,1.3-.44,1.85-.87.2-.15.36-.32.46-.49.14,0,.27,0,.41-.01,2.11-.16,4.24-.7,6.18-1.56l-.85,1.05c-.09.1-.17.21-.26.31-.06.08-.05.19.03.26.08.06.19.05.26-.03l.25-.3c.73-.83,1.74-1.39,2.84-1.57.31-.05.51-.02.61.1.05.06.08.14.11.23.02.07.05.15.08.21.31.62,1.18.63,1.46.64,2.14.04,4.31-.36,6.32-1.14-.4,1.06-1.12,2.01-2.03,2.71-.47.12-.93.23-1.39.33-.65.14-1.37.34-1.62.98-.02.06-.01.13.03.18.04.05.09.07.15.07,0,0,.02,0,.02,0,1.08-.13,2.1-.57,2.97-1.22,2.3-.61,8.72-1.66,11.19-2.57-1.39,1.92-4.3,5.39-5.14,7.44-.24.58-.45,1.26-.21,1.88.03.07.1.12.18.13h0c.08,0,.15-.04.18-.11l.46-.9c.05-.1.01-.22-.09-.27-.1-.05-.22-.01-.27.09l-.16.32c.03-.32.15-.65.28-.98.91-2.23,4-5.89,5.55-7.99.01,0,.03,0,.04,0,.04-.02.08-.03.12-.05,1.42-.56,2.85-.44,4.3.93,3.89,3.68,10.13.82,10.88.62,2.41,1.72,6.95.46,8.33-.47.01.01.02.02.03.03,1.88,1.91,7.36.47,8.66-.98-.75,1.19-1.33,2.54-1.9,3.86-.23.53-.45,1.05-.68,1.54-.05.1,0,.22.1.27.03.01.06.02.09.02.07,0,.15-.04.18-.11.2-.4.39-.82.58-1.25.45-1,.91-2.02,1.56-2.85.43.34,1.02.47,1.53.31.47-.15.95-.71,1.05-1.22.06-.3-.02-.57-.26-.77ZM43.75,60.24c.14-.29.28-.53.5-.66.07-.04.16-.06.24-.06.05,0,.1,0,.15.02.03,0,.06.02.08.04-.31.26-.64.49-.99.69,0,0,0-.02.01-.03ZM34.54,71.75c-.21.01-.49-.07-.58-.19-.03-.04-.03-.07-.01-.11.03-.07.14-.13.22-.16.45-.19.93-.26,1.42-.26.26,0,.51.02.78.05-.61.38-1.21.61-1.83.67ZM50.37,70.36c-.39.05-.87-.08-.98-.42-.22-.65.97-1.1,1.1-1.15.3-.11.63-.23.95-.23.04,0,.08,0,.12,0,.03,0,.05,0,.08.01-.07.11-.11.24-.09.39.02.19.12.38.27.51-.33.48-.87.82-1.44.89ZM51.91,68.93s0-.08.02-.12c0,.01.02.03.03.06.03.07.03.16.02.25-.04-.06-.06-.12-.07-.18ZM68.44,67.45c.69-.78,1.76-1.22,2.8-1.17.11,0,.26.02.32.1.03.04.03.07.02.11-.03.13-.22.32-.43.42-.23.12-.46.22-.69.33.03-.12.05-.25.07-.37.01-.09-.04-.17-.12-.2-.09-.03-.18,0-.22.08-.33.59-1.1.89-1.75.7ZM65.42,71.72c.28-.24.71-.35,1.12-.44.11-.02.22-.05.33-.07-.46.23-.95.41-1.45.51ZM95.48,68.83c.24-.25.45-.35.67-.35.17,0,.33.06.49.16-.36.12-.77.25-1.19.37-.01-.03-.02-.09.03-.18ZM104.1,68.15c.21-.15.41-.22.59-.22.17,0,.33.06.49.18-.4.13-.79.25-1.18.36.02-.14.06-.28.1-.32ZM114.47,68.53c-.07.36-.45.81-.78.91-.27.09-.58.06-.85-.06.13-.16.18-.38.12-.58l.16-.15c.54-.5.8-.71,1.26-.48.03.03.14.12.09.35Z"/></g></svg>